<?xml version="1.0" standalone="no"?>
<!DOCTYPE svg PUBLIC "-//W3C//DTD SVG 20010904//EN"
 "http://www.w3.org/TR/2001/REC-SVG-20010904/DTD/svg10.dtd">
<svg version="1.0" xmlns="http://www.w3.org/2000/svg"
 width="1200.000000pt" height="1200.000000pt" viewBox="0 0 1200.000000 1200.000000"
 preserveAspectRatio="xMidYMid meet">
<metadata>
Created by potrace 1.14, written by Peter Selinger 2001-2017
</metadata>
<g transform="translate(0.000000,1200.000000) scale(0.100000,-0.100000)"
fill="#000000" stroke="none">
<path d="M5937 11504 c-1 -1 -40 -5 -87 -8 -137 -9 -346 -46 -470 -82 -92 -27
-262 -86 -290 -101 -14 -7 -29 -13 -33 -13 -15 0 -219 -101 -315 -157 -261
-151 -475 -317 -712 -553 -74 -74 -162 -166 -195 -205 -33 -38 -62 -72 -65
-75 -3 -3 -17 -21 -32 -42 -15 -20 -34 -42 -41 -50 -22 -22 -178 -237 -238
-328 -198 -299 -405 -693 -526 -999 -14 -36 -33 -84 -43 -106 -33 -77 -132
-366 -195 -575 -15 -47 -74 -268 -80 -298 -2 -9 -8 -37 -14 -62 -14 -53 -14
-54 -51 -235 -16 -77 -32 -160 -35 -185 -4 -24 -8 -47 -10 -50 -1 -3 -6 -27
-9 -55 -12 -90 -17 -120 -22 -147 -6 -28 -10 -63 -19 -138 -3 -25 -7 -58 -9
-75 -4 -28 -11 -99 -21 -200 -10 -104 -16 -187 -20 -267 -2 -48 -5 -91 -8 -95
-6 -10 0 -793 7 -878 2 -33 7 -98 10 -144 3 -46 8 -102 11 -125 2 -23 7 -63 9
-91 13 -131 38 -324 52 -401 3 -16 7 -42 9 -59 3 -26 44 -250 59 -325 22 -106
50 -226 81 -345 20 -77 38 -147 40 -155 25 -100 181 -569 200 -600 8 -14 -1
-13 -33 4 -56 29 -219 75 -387 111 -104 22 -165 36 -305 74 -100 26 -184 43
-280 56 -29 4 -207 51 -265 70 -87 29 -325 142 -325 154 0 4 -26 25 -57 46
-53 34 -203 178 -203 194 0 11 -39 41 -54 41 -47 0 -49 -16 -13 -102 9 -21 21
-71 26 -110 15 -97 14 -96 35 -153 32 -90 101 -210 146 -256 14 -14 54 -59 89
-100 71 -82 112 -126 154 -167 15 -15 48 -46 72 -69 24 -24 48 -43 52 -43 10
-1 63 -47 63 -55 0 -11 -491 3 -555 16 -33 6 -64 12 -70 13 -5 1 -14 4 -20 8
-5 3 -24 9 -41 12 -17 4 -41 17 -53 29 -15 17 -32 23 -63 22 -54 0 -60 -21
-19 -66 17 -18 31 -38 31 -45 0 -6 12 -17 28 -25 15 -8 47 -36 72 -63 25 -27
72 -74 104 -105 33 -31 79 -75 102 -99 24 -23 47 -42 51 -42 5 0 22 -13 38
-28 17 -15 48 -41 70 -57 22 -16 54 -41 71 -55 17 -14 41 -33 52 -42 12 -9 36
-24 54 -34 36 -18 210 -125 218 -134 6 -7 55 -34 100 -57 19 -9 47 -26 62 -36
15 -10 51 -26 80 -36 30 -10 78 -31 108 -46 30 -15 101 -44 159 -65 59 -21
135 -50 170 -64 36 -14 72 -26 82 -26 9 0 28 -9 42 -20 15 -12 29 -21 32 -20
23 2 35 -1 35 -10 0 -5 31 -62 69 -127 75 -127 78 -137 87 -308 3 -55 10 -116
16 -135 6 -19 13 -48 15 -64 1 -16 11 -35 21 -42 10 -7 25 -31 32 -55 13 -39
79 -117 100 -120 6 -1 13 -2 18 -3 8 -2 220 -90 267 -111 25 -11 243 -75 310
-90 11 -2 66 -16 123 -30 56 -13 112 -27 125 -29 12 -2 101 -20 197 -40 96
-19 193 -38 215 -41 85 -14 101 -16 125 -21 30 -5 200 -31 253 -39 20 -3 52
-7 70 -10 42 -6 177 -22 247 -30 30 -4 66 -8 80 -10 14 -2 54 -7 90 -10 36 -3
76 -8 90 -10 38 -5 155 -16 218 -21 31 -2 77 -6 102 -8 101 -11 331 -27 625
-42 185 -10 600 -10 730 0 61 5 124 10 140 11 33 2 136 15 175 21 14 2 43 6
65 9 22 3 65 10 95 15 30 5 73 12 95 15 22 3 47 7 55 10 8 2 26 6 40 9 22 3
70 12 120 21 8 2 123 27 255 55 132 29 249 54 260 56 11 2 67 15 125 29 58 14
114 28 125 30 11 3 47 11 80 19 33 9 78 17 100 20 62 7 131 24 240 61 55 18
120 39 145 46 25 7 50 15 55 19 18 11 79 29 118 34 49 8 57 12 160 90 47 35
106 76 131 91 25 15 46 30 47 33 3 30 12 53 37 101 28 55 29 59 27 195 -2 152
3 193 31 233 11 14 24 33 29 42 6 9 17 27 26 41 14 23 104 188 136 251 13 26
34 36 228 105 23 8 50 14 60 14 11 0 47 9 80 20 33 10 80 24 105 31 25 6 83
26 130 45 47 19 94 35 105 37 11 1 44 15 73 30 28 15 58 27 67 27 8 0 37 14
63 30 27 17 52 30 56 30 3 0 23 10 44 23 20 13 57 31 81 41 52 20 74 38 196
155 50 47 104 98 122 112 26 22 56 61 98 128 6 9 24 34 41 56 39 51 56 157 28
173 -13 7 -27 4 -55 -15 -49 -32 -92 -45 -334 -99 -66 -15 -203 -31 -220 -26
-11 3 -54 7 -95 9 -109 7 -113 16 -32 73 56 41 171 139 203 175 77 86 273 385
253 385 -4 0 -2 6 4 13 15 18 41 114 47 177 3 30 14 75 23 100 15 41 24 172
12 183 -3 3 -19 7 -35 9 -26 3 -30 0 -31 -22 -2 -42 -3 -48 -20 -65 -9 -8 -37
-44 -62 -78 -25 -34 -54 -68 -64 -75 -10 -8 -38 -33 -61 -56 -23 -23 -64 -56
-92 -71 -27 -16 -52 -32 -55 -35 -4 -5 -126 -74 -213 -121 -27 -15 -119 -46
-152 -53 -16 -3 -100 -21 -185 -41 -85 -20 -166 -38 -180 -41 -14 -2 -36 -7
-50 -10 -14 -3 -35 -8 -46 -10 -12 -2 -66 -13 -120 -25 -55 -11 -108 -22 -119
-23 -11 -2 -31 -6 -45 -10 -14 -3 -36 -8 -50 -10 -45 -8 -164 -35 -198 -45
-30 -9 -33 -8 -27 7 92 239 212 644 280 947 6 26 24 113 30 145 3 14 9 48 15
75 5 28 12 66 15 85 3 19 8 42 10 50 2 8 7 35 10 60 3 25 8 52 10 60 2 8 7 40
11 70 4 30 8 64 9 75 2 11 6 43 10 70 3 28 8 66 11 86 2 20 7 59 10 85 2 27 7
69 9 94 9 89 23 271 30 410 5 101 6 674 1 745 -2 28 -7 104 -11 170 -4 66 -9
136 -10 155 -5 58 -16 173 -20 210 -11 95 -25 207 -29 225 -2 11 -7 45 -11 75
-4 30 -9 64 -11 75 -3 11 -6 34 -9 50 -4 28 -28 162 -40 230 -6 30 -34 158
-40 185 -2 8 -10 44 -18 80 -113 493 -277 963 -488 1398 -44 89 -79 167 -79
171 0 5 -4 11 -8 13 -4 2 -25 37 -46 78 -22 41 -47 86 -57 99 -11 13 -19 27
-19 31 0 4 -21 42 -47 84 -27 43 -62 101 -80 129 -17 29 -36 57 -40 62 -5 6
-29 39 -53 75 -46 69 -146 204 -189 256 -14 17 -42 51 -61 74 -117 145 -362
392 -506 510 -64 52 -121 100 -128 105 -25 23 -260 180 -326 219 -74 43 -311
160 -365 179 -27 10 -59 23 -70 28 -98 43 -384 119 -514 135 -25 3 -47 7 -50
9 -18 10 -435 28 -444 19z"/>
<path d="M4360 11043 c-71 -49 -187 -139 -264 -206 -89 -76 -286 -269 -286
-279 0 -20 23 -3 98 70 158 154 340 309 466 395 51 35 69 57 48 57 -4 0 -32
-17 -62 -37z"/>
<path d="M4220 11023 c-14 -9 -32 -24 -40 -33 -8 -9 -51 -45 -95 -80 -156
-126 -562 -550 -549 -572 5 -8 26 12 89 88 110 131 314 336 440 441 50 41 109
92 133 114 24 22 47 37 53 34 5 -4 9 1 9 9 0 20 -10 20 -40 -1z"/>
<path d="M4228 10853 c-1 -5 -28 -29 -58 -54 -150 -127 -492 -490 -476 -506 7
-7 25 10 95 95 82 99 358 371 444 439 15 11 27 24 27 27 0 9 -28 7 -32 -1z"/>
<path d="M3757 10516 c-12 -30 17 -35 33 -6 9 17 8 20 -9 20 -10 0 -21 -6 -24
-14z"/>
<path d="M3711 10456 c-7 -8 -8 -17 -3 -20 6 -3 15 1 21 8 7 8 8 17 3 20 -6 3
-15 -1 -21 -8z"/>
<path d="M3650 10385 c-7 -8 -8 -15 -2 -15 5 0 15 7 22 15 7 8 8 15 2 15 -5 0
-15 -7 -22 -15z"/>
<path d="M3585 10310 c-10 -11 -14 -20 -8 -20 5 0 18 9 28 20 10 11 14 20 8
20 -5 0 -18 -9 -28 -20z"/>
<path d="M3447 10234 c-27 -36 -47 -68 -44 -70 4 -5 107 121 107 131 0 16 -21
-3 -63 -61z"/>
<path d="M3522 10229 c-7 -10 -8 -19 -3 -19 13 0 33 28 23 33 -4 3 -13 -3 -20
-14z"/>
<path d="M3572 10140 c-45 -61 -79 -110 -74 -110 10 0 166 209 160 215 -2 2
-41 -45 -86 -105z"/>
<path d="M3463 10148 c-19 -25 -24 -38 -14 -38 11 0 35 39 28 46 -2 3 -9 -1
-14 -8z"/>
<path d="M8520 10125 c0 -8 3 -15 8 -15 4 0 20 -21 37 -48 16 -26 32 -49 36
-52 3 -3 13 -18 21 -34 8 -16 18 -24 21 -19 5 9 -108 183 -119 183 -2 0 -4 -7
-4 -15z"/>
<path d="M8623 10108 c3 -21 15 -47 26 -60 l21 -22 0 33 c0 21 -9 41 -26 59
l-26 27 5 -37z"/>
<path d="M3354 10104 c-10 -14 -24 -31 -30 -38 -26 -28 -116 -167 -111 -172 3
-3 12 7 20 23 8 15 38 59 67 97 61 81 84 116 78 116 -3 0 -14 -12 -24 -26z"/>
<path d="M3390 10055 c-6 -8 -10 -19 -8 -26 2 -6 9 0 16 15 13 29 10 33 -8 11z"/>
<path d="M8687 10031 c-5 -22 12 -63 31 -69 19 -6 15 42 -7 67 -18 20 -19 21
-24 2z"/>
<path d="M3445 9969 c-11 -17 1 -21 15 -4 8 9 8 15 2 15 -6 0 -14 -5 -17 -11z"/>
<path d="M8740 9946 c0 -24 19 -66 30 -66 16 0 12 47 -6 64 -19 20 -24 20 -24
2z"/>
<path d="M8840 9957 c0 -16 84 -129 88 -118 2 6 -7 25 -20 41 -48 63 -67 85
-68 77z"/>
<path d="M8670 9914 c0 -10 49 -73 50 -63 0 3 -11 20 -25 39 -14 19 -25 30
-25 24z"/>
<path d="M3280 9895 c-7 -9 -11 -18 -8 -20 3 -3 11 1 18 10 7 9 11 18 8 20 -3
3 -11 -1 -18 -10z"/>
<path d="M3380 9885 c-10 -12 -10 -15 4 -15 9 0 16 7 16 15 0 8 -2 15 -4 15
-2 0 -9 -7 -16 -15z"/>
<path d="M8800 9845 c0 -12 24 -55 32 -55 11 0 10 4 -4 35 -9 21 -28 35 -28
20z"/>
<path d="M3225 9809 c-11 -17 1 -21 15 -4 8 9 8 15 2 15 -6 0 -14 -5 -17 -11z"/>
<path d="M3325 9799 c-6 -19 0 -38 9 -28 10 12 16 49 7 49 -5 0 -13 -9 -16
-21z"/>
<path d="M3176 9734 c-9 -24 -7 -28 9 -14 17 14 20 30 6 30 -5 0 -12 -7 -15
-16z"/>
<path d="M3276 9724 c-9 -22 -8 -24 9 -24 8 0 15 9 15 20 0 24 -15 27 -24 4z"/>
<path d="M8872 9715 c12 -27 34 -35 24 -9 -3 9 -6 20 -6 25 0 5 -7 9 -15 9
-12 0 -13 -4 -3 -25z"/>
<path d="M8879 9573 c37 -65 85 -153 106 -195 21 -43 41 -76 43 -73 9 8 -196
384 -210 385 -4 0 24 -53 61 -117z"/>
<path d="M3130 9651 c-6 -12 -7 -21 -1 -21 10 0 24 30 17 37 -2 3 -9 -5 -16
-16z"/>
<path d="M3232 9654 c-15 -30 -3 -49 15 -24 11 15 12 25 5 32 -7 7 -13 4 -20
-8z"/>
<path d="M8930 9632 c0 -21 26 -60 34 -51 6 6 -21 69 -30 69 -2 0 -4 -8 -4
-18z"/>
<path d="M3178 9575 c-8 -18 -8 -29 -1 -36 8 -8 16 -3 27 19 15 28 13 42 -6
42 -5 0 -14 -11 -20 -25z"/>
<path d="M3080 9566 c-6 -9 -10 -21 -8 -28 3 -8 9 -4 17 10 15 28 9 39 -9 18z"/>
<path d="M8992 9519 c1 -12 8 -24 15 -26 7 -3 9 3 6 17 -8 29 -25 37 -21 9z"/>
<path d="M3010 9499 c0 -5 5 -7 10 -4 6 3 10 8 10 11 0 2 -4 4 -10 4 -5 0 -10
-5 -10 -11z"/>
<path d="M3033 9478 c-19 -26 -75 -150 -70 -155 3 -3 24 32 47 77 37 74 48
111 23 78z"/>
<path d="M9150 9439 c7 -11 14 -19 16 -16 7 7 -7 37 -17 37 -6 0 -5 -9 1 -21z"/>
<path d="M2975 9439 c-4 -6 -5 -12 -2 -15 2 -3 7 2 10 11 7 17 1 20 -8 4z"/>
<path d="M9040 9438 c0 -24 12 -58 20 -58 14 0 17 36 5 53 -14 20 -25 22 -25
5z"/>
<path d="M2882 9320 c-22 -49 -38 -90 -34 -90 4 0 14 15 21 33 8 17 26 56 39
85 13 29 22 55 20 58 -3 2 -23 -36 -46 -86z"/>
<path d="M9190 9363 c0 -5 7 -18 15 -29 13 -18 14 -18 8 4 -5 22 -23 41 -23
25z"/>
<path d="M9096 9352 c-10 -17 4 -62 20 -62 17 0 17 0 0 40 -7 18 -16 28 -20
22z"/>
<path d="M9250 9251 c0 -6 4 -13 10 -16 6 -3 7 1 4 9 -7 18 -14 21 -14 7z"/>
<path d="M9150 9216 c0 -25 4 -36 15 -36 18 0 17 46 -2 62 -10 8 -13 2 -13
-26z"/>
<path d="M9070 9213 c0 -3 20 -48 45 -99 47 -96 88 -192 131 -304 14 -36 34
-83 45 -106 10 -22 19 -51 19 -63 0 -14 5 -21 13 -18 16 6 12 70 -7 105 -8 15
-19 46 -26 70 -8 31 -15 42 -26 38 -11 -4 -14 4 -14 35 0 37 -17 75 -47 107
-7 7 -38 65 -68 128 -50 102 -65 128 -65 107z"/>
<path d="M9291 9160 c1 -24 15 -54 21 -44 4 5 0 20 -8 34 -7 14 -13 18 -13 10z"/>
<path d="M9200 9155 c-1 -5 -3 -19 -5 -31 -3 -12 2 -30 10 -40 11 -15 15 -16
15 -4 1 8 3 23 5 32 2 9 -3 25 -11 35 -7 10 -14 14 -14 8z"/>
<path d="M9325 9048 c9 -40 13 -48 27 -48 6 0 7 10 3 28 -4 15 -8 33 -8 40 0
6 -7 12 -14 12 -11 0 -13 -8 -8 -32z"/>
<path d="M9249 9040 c-2 -31 3 -65 12 -74 9 -10 13 10 9 49 -2 25 -20 45 -21
25z"/>
<path d="M9370 8951 c0 -42 13 -81 27 -81 12 0 14 7 8 28 -3 15 -7 37 -7 50 0
12 -6 22 -14 22 -8 0 -14 -8 -14 -19z"/>
<path d="M9292 8903 c1 -29 6 -43 15 -43 18 0 17 41 -2 66 -13 18 -14 16 -13
-23z"/>
<path d="M9420 8830 c0 -5 5 -10 10 -10 6 0 10 5 10 10 0 6 -4 10 -10 10 -5 0
-10 -4 -10 -10z"/>
<path d="M9337 8793 c3 -20 9 -46 13 -58 7 -18 9 -18 15 -3 9 22 -7 90 -22 95
-7 3 -9 -8 -6 -34z"/>
<path d="M9382 8675 c4 -59 23 -71 26 -17 2 26 -3 44 -14 53 -14 12 -15 8 -12
-36z"/>
<path d="M9349 8596 c-15 -10 -15 -16 6 -71 17 -47 23 -56 28 -40 7 22 3 69
-10 102 -7 18 -11 19 -24 9z"/>
<path d="M9429 8570 c-2 -30 0 -50 7 -70 4 -13 6 -13 14 0 14 22 12 54 -5 76
-14 18 -14 18 -16 -6z"/>
<path d="M9461 8488 c-6 -15 -8 -33 -6 -40 2 -7 7 -24 9 -38 3 -14 28 -99 56
-190 73 -235 126 -448 176 -699 18 -95 25 -131 29 -156 1 -11 7 -47 14 -80 6
-33 13 -76 15 -95 3 -19 7 -48 10 -65 2 -16 7 -52 11 -80 3 -27 8 -66 10 -85
3 -19 8 -60 11 -90 3 -30 7 -68 8 -85 13 -117 21 -225 33 -390 9 -132 9 -843
-1 -970 -4 -55 -9 -122 -11 -150 -2 -27 -6 -75 -10 -106 -4 -37 -3 -59 4 -63
6 -4 11 -4 12 1 1 10 5 44 13 138 3 39 8 95 11 125 28 310 35 645 21 970 -3
91 -9 188 -11 215 -8 87 -16 178 -19 225 -2 25 -7 61 -10 80 -3 19 -8 62 -12
95 -3 33 -8 74 -9 90 -5 37 -43 291 -50 325 -3 14 -7 37 -10 51 -60 329 -163
736 -258 1019 -24 72 -25 74 -36 48z"/>
<path d="M9396 8473 c-9 -9 -7 -66 3 -81 6 -10 10 -8 14 10 13 48 3 91 -17 71z"/>
<path d="M9420 8380 c-9 -17 -7 -35 13 -93 21 -59 34 -103 52 -167 1 -3 7 -25
14 -50 7 -25 15 -54 16 -65 2 -11 13 -54 24 -95 11 -41 22 -86 25 -100 3 -14
12 -56 21 -95 25 -110 44 -209 71 -365 3 -19 8 -46 11 -60 2 -14 6 -38 8 -55
2 -16 6 -41 9 -55 7 -39 17 -111 21 -155 2 -22 6 -60 10 -85 4 -25 9 -58 10
-75 3 -35 15 -162 21 -220 2 -22 7 -85 10 -140 3 -55 8 -127 10 -160 6 -95 6
-660 0 -765 -4 -52 -8 -135 -11 -185 -9 -169 -16 -250 -24 -280 -10 -37 1 -77
14 -54 12 18 12 22 20 143 3 56 8 121 10 146 2 25 6 117 10 205 3 88 9 214 13
280 12 214 6 573 -13 770 -2 22 -7 74 -10 115 -4 41 -8 86 -10 100 -2 14 -6
57 -10 95 -3 39 -8 81 -10 95 -2 14 -7 49 -10 79 -4 30 -9 63 -11 75 -2 12 -7
41 -10 66 -3 25 -8 54 -10 65 -2 11 -8 45 -14 75 -5 30 -12 69 -15 85 -3 17
-10 57 -16 90 -6 33 -22 107 -35 165 -14 58 -27 116 -30 129 -25 118 -147 547
-159 559 -2 2 -9 -6 -15 -18z"/>
<path d="M9798 5031 c-5 -33 4 -57 19 -48 13 8 10 70 -3 74 -7 2 -14 -10 -16
-26z"/>
<path d="M9716 4975 c-7 -37 -1 -59 15 -50 12 8 12 85 0 85 -5 0 -12 -16 -15
-35z"/>
<path d="M9782 4889 c-2 -47 6 -68 19 -48 14 23 11 89 -4 89 -9 0 -14 -14 -15
-41z"/>
<path d="M9699 4853 c0 -5 -2 -16 -4 -25 -2 -10 1 -20 6 -24 5 -3 9 -2 10 3 0
4 2 18 5 31 2 12 -1 22 -6 22 -6 0 -10 -3 -11 -7z"/>
<path d="M9670 4653 c-7 -38 -14 -77 -16 -88 -2 -11 -7 -36 -10 -55 -4 -19 -3
-31 2 -27 4 4 9 13 10 20 1 7 5 29 9 51 4 21 9 48 11 60 10 49 16 106 11 106
-2 0 -10 -30 -17 -67z"/>
<path d="M9717 4483 c-12 -12 -7 -33 7 -33 8 0 13 7 12 15 -3 19 -11 27 -19
18z"/>
<path d="M9626 4394 c-8 -20 -8 -59 0 -52 7 8 17 68 11 68 -3 0 -8 -7 -11 -16z"/>
<path d="M9700 4393 c0 -10 5 -25 10 -33 8 -12 10 -11 10 8 0 12 0 25 1 29 0
4 -4 9 -10 11 -6 2 -11 -5 -11 -15z"/>
<path d="M9686 4322 c-10 -16 -14 -78 -6 -91 5 -9 11 -3 18 18 14 39 4 99 -12
73z"/>
<path d="M9596 4259 c-13 -68 -1 -81 14 -15 4 20 4 38 0 41 -4 3 -10 -9 -14
-26z"/>
<path d="M9652 4163 c-3 -55 14 -77 23 -30 7 38 2 67 -13 67 -4 0 -9 -17 -10
-37z"/>
<path d="M9577 4148 c-15 -38 -19 -54 -24 -82 -4 -26 -3 -28 11 -17 17 14 30
69 23 98 -4 17 -4 17 -10 1z"/>
</g>
</svg>
